<?xml version="1.0" standalone="no"?>
<!DOCTYPE svg PUBLIC "-//W3C//DTD SVG 20010904//EN"
 "http://www.w3.org/TR/2001/REC-SVG-20010904/DTD/svg10.dtd">
<svg version="1.0" xmlns="http://www.w3.org/2000/svg"
 width="750.000000pt" height="750.000000pt" viewBox="0 0 750.000000 750.000000"
 preserveAspectRatio="xMidYMid meet">
<metadata>
Created by potrace 1.11, written by Peter Selinger 2001-2013
</metadata>
<g transform="translate(0.000000,750.000000) scale(0.100000,-0.100000)"
fill="#000000" stroke="none">
<path d="M2697 6361 c-16 -10 -41 -34 -57 -52 -70 -86 -280 -417 -514 -814
-66 -110 -138 -231 -161 -270 -23 -38 -74 -124 -113 -190 -39 -66 -81 -130
-94 -141 -30 -28 -82 -54 -106 -54 -25 0 -70 -20 -312 -137 -107 -52 -217
-104 -245 -116 -90 -38 -109 -52 -163 -123 -46 -61 -145 -246 -201 -376 -15
-35 -29 -51 -53 -61 -59 -25 -82 -60 -86 -130 -3 -52 0 -67 20 -97 63 -95 210
-93 268 2 24 40 26 111 4 153 -20 38 -15 53 63 212 72 148 139 247 175 259 29
9 260 116 436 202 45 22 108 48 139 57 75 22 141 56 176 91 15 15 51 66 79
113 28 47 61 102 73 121 12 19 75 125 140 235 65 110 158 266 207 347 l90 148
32 -35 c21 -22 43 -35 58 -35 18 0 37 -13 62 -45 21 -25 43 -45 49 -45 7 0 57
45 112 100 l100 100 152 -152 c98 -97 153 -160 153 -173 0 -28 27 -64 57 -76
42 -16 103 28 103 75 0 25 -43 67 -77 74 -23 5 -73 47 -175 147 -79 77 -161
155 -181 174 l-36 34 -96 -94 c-53 -52 -102 -95 -109 -97 -19 -4 -39 24 -41
59 -4 40 -35 71 -74 73 -17 1 -31 3 -31 6 0 3 24 44 54 90 30 47 77 122 105
166 69 111 74 114 110 75 23 -24 37 -31 68 -31 38 0 42 -4 141 -122 156 -189
241 -306 276 -378 38 -79 60 -92 130 -79 27 5 51 7 53 5 2 -1 -55 -77 -127
-167 -72 -90 -156 -197 -188 -237 -31 -40 -64 -82 -73 -93 -9 -11 -70 -87
-135 -170 -66 -83 -150 -190 -189 -239 -38 -48 -81 -102 -95 -120 -14 -19 -70
-91 -125 -160 -55 -69 -140 -178 -189 -242 -78 -102 -93 -117 -125 -122 -64
-11 -121 -83 -121 -153 0 -36 37 -100 73 -127 40 -30 134 -29 174 0 55 41 76
104 59 179 -6 27 1 41 64 120 39 50 88 113 109 140 64 82 360 458 378 480 10
11 45 56 79 100 35 44 122 154 194 245 73 91 144 181 158 200 25 32 84 106
237 295 31 39 60 75 63 81 4 5 22 20 40 33 18 12 43 44 56 69 22 43 280 361
306 377 5 3 22 -3 36 -14 30 -24 52 -26 87 -10 23 10 39 -4 293 -261 148 -150
281 -280 295 -291 14 -10 44 -21 65 -24 35 -6 50 0 149 60 114 69 245 139 250
133 1 -2 15 -23 30 -48 15 -25 80 -97 144 -160 88 -86 129 -135 164 -196 59
-102 96 -134 157 -134 37 0 43 -9 118 -185 197 -464 259 -622 281 -710 30
-121 33 -128 84 -179 29 -29 91 -74 139 -101 76 -43 89 -55 98 -85 16 -60 99
-120 162 -120 72 1 144 69 149 140 4 64 -1 79 -38 118 -48 50 -97 65 -165 51
-47 -11 -51 -10 -116 29 -114 69 -132 89 -152 167 -19 74 -87 262 -145 399
-249 594 -250 595 -294 613 -20 9 -52 18 -72 20 -33 5 -41 13 -92 97 -43 70
-80 114 -164 192 -86 81 -115 115 -143 170 -38 73 -68 98 -126 98 -37 0 -153
-54 -290 -135 -55 -32 -105 -59 -110 -59 -11 0 -99 86 -398 388 -128 130 -217
213 -230 214 -12 0 -31 0 -44 -1 -12 -1 -34 7 -49 19 -50 39 -79 29 -168 -62
-44 -46 -122 -133 -173 -194 l-92 -111 -72 4 c-64 4 -77 2 -108 -19 -19 -13
-46 -45 -60 -72 -14 -27 -35 -52 -46 -57 -19 -6 -28 2 -72 69 -63 97 -180 245
-331 420 -58 67 -72 78 -107 82 -21 3 -55 17 -74 32 -19 14 -48 29 -65 33 -16
4 -37 9 -45 11 -8 2 -28 -5 -43 -15z m994 -570 c21 -22 29 -39 29 -66 0 -50
-44 -95 -93 -95 -41 0 -92 37 -101 74 -23 91 97 154 165 87z m-1117 -33 c15
-24 -13 -53 -43 -43 -23 7 -28 34 -9 53 16 16 38 12 52 -10z m-1776 -1778 c64
-39 65 -115 2 -158 -44 -30 -84 -24 -122 18 -34 37 -36 77 -7 114 38 48 77 56
127 26z m5884 -28 c26 -24 31 -36 30 -67 -2 -51 -24 -82 -68 -94 -79 -22 -145
54 -114 130 26 61 100 76 152 31z m-4368 -17 c39 -36 37 -96 -4 -137 -28 -27
-36 -30 -73 -25 -53 7 -87 44 -87 93 0 81 104 125 164 69z"/>
<path d="M3731 5564 c-12 -15 -21 -38 -21 -51 0 -26 41 -73 64 -73 8 0 51 -51
97 -112 45 -62 85 -117 90 -122 8 -9 55 22 182 117 42 32 81 56 86 53 5 -3 36
-46 70 -96 34 -49 65 -90 68 -90 3 0 66 45 140 100 77 57 144 100 157 100 30
0 66 40 66 74 0 34 -41 76 -73 76 -37 0 -75 -35 -79 -73 -3 -27 -16 -42 -93
-99 -49 -37 -93 -68 -97 -68 -4 0 -37 41 -74 90 -36 50 -70 90 -76 90 -5 0
-35 -19 -66 -43 -89 -68 -177 -127 -187 -127 -6 1 -36 37 -67 81 -47 65 -58
87 -58 119 0 75 -85 110 -129 54z m73 -26 c8 -14 7 -21 -6 -34 -30 -30 -75 9
-48 42 16 18 39 15 54 -8z"/>
<path d="M2447 5428 c-30 -51 -134 -232 -232 -402 l-179 -309 -70 -32 c-39
-18 -188 -87 -330 -154 -201 -93 -263 -118 -273 -109 -18 15 -70 13 -90 -3
-40 -34 -35 -94 11 -125 32 -20 67 -13 99 21 18 20 308 162 654 320 48 22 56
32 109 122 31 54 87 150 124 213 37 63 109 188 161 277 52 90 96 163 100 163
3 0 79 -64 170 -143 104 -91 165 -150 167 -164 4 -29 47 -63 79 -63 33 0 73
42 73 78 0 39 -37 72 -81 72 -36 0 -89 41 -343 268 -38 34 -75 62 -82 62 -7 0
-37 -42 -67 -92z m521 -287 c21 -13 11 -55 -14 -59 -30 -4 -48 21 -34 47 11
22 27 26 48 12z"/>
<path d="M5026 5264 l-109 -115 -48 47 c-31 30 -49 57 -49 72 0 30 -42 72 -73
72 -13 0 -36 -9 -51 -21 -51 -40 -23 -129 42 -129 21 0 44 -17 97 -70 38 -38
74 -70 80 -70 5 0 58 51 117 113 l108 112 111 -115 c62 -63 169 -173 238 -245
215 -221 261 -273 255 -288 -7 -20 35 -65 68 -73 22 -5 34 0 58 24 31 32 38
66 17 93 -16 21 -51 39 -75 39 -17 0 -283 267 -587 588 -43 45 -81 82 -84 82
-4 0 -55 -52 -115 -116z m819 -634 c0 -20 -6 -26 -26 -28 -17 -2 -29 3 -32 12
-11 28 4 47 32 44 20 -2 26 -8 26 -28z"/>
<path d="M2609 5233 c-27 -7 -51 -59 -44 -96 5 -27 -2 -47 -43 -117 -27 -47
-103 -177 -168 -290 l-120 -205 -454 -227 c-416 -207 -458 -226 -495 -222 -70
9 -114 -46 -89 -111 4 -8 19 -22 34 -30 38 -20 88 -3 104 36 10 24 54 49 291
166 154 75 365 180 470 233 l189 95 65 110 c250 429 292 498 304 504 23 9 56
49 61 74 5 22 1 34 -23 57 -28 28 -45 33 -82 23z m54 -55 c15 -23 1 -48 -28
-48 -14 0 -25 2 -25 4 0 2 -3 11 -6 19 -6 16 23 50 39 44 6 -2 15 -10 20 -19z"/>
<path d="M3762 5160 c-9 -11 -19 -36 -22 -55 -4 -26 -87 -132 -390 -496 -1056
-1269 -960 -1153 -960 -1168 0 -8 137 -11 460 -11 l460 0 1 -27 c1 -16 2 -203
3 -418 l2 -390 -23 -28 c-30 -37 -29 -72 2 -102 48 -49 125 -19 125 48 0 18
-7 42 -15 53 -12 16 -14 90 -15 475 l0 457 -31 4 c-17 3 -206 5 -421 6 -214 0
-392 2 -394 4 -3 4 66 92 182 229 131 157 619 743 644 775 14 17 61 74 105
126 44 53 134 161 200 241 97 118 125 146 146 147 33 0 69 39 69 74 0 62 -89
101 -128 56z m82 -42 c8 -14 7 -21 -6 -34 -30 -30 -75 9 -48 42 16 18 39 15
54 -8z"/>
<path d="M4033 4973 c-87 -103 -187 -221 -223 -262 -36 -42 -196 -229 -354
-416 -159 -187 -332 -391 -384 -452 -53 -62 -103 -113 -113 -113 -9 0 -28 -10
-43 -21 -57 -45 -10 -152 58 -135 38 9 66 45 66 83 0 34 79 129 1063 1283 49
58 95 106 101 108 6 1 125 -115 264 -258 140 -143 258 -260 264 -260 13 0 51
34 233 205 189 178 209 195 232 195 11 0 32 9 47 21 20 16 26 29 26 58 0 42
-19 65 -62 76 -22 6 -33 1 -58 -23 -17 -18 -30 -41 -30 -55 0 -20 -42 -64
-190 -202 -169 -157 -192 -176 -207 -164 -23 19 -330 332 -427 435 -43 46 -85
84 -92 84 -7 0 -84 -84 -171 -187z m-1039 -1315 c8 -14 7 -21 -6 -34 -30 -30
-75 9 -48 42 16 18 39 15 54 -8z"/>
<path d="M4860 4963 c-32 -12 -60 -47 -60 -75 0 -36 40 -78 75 -78 51 0 89 63
69 115 -5 13 -56 47 -66 44 -2 0 -10 -3 -18 -6z"/>
<path d="M4149 4900 c-23 -23 -28 -35 -23 -55 5 -21 -6 -39 -66 -112 -40 -49
-98 -114 -129 -146 l-56 -58 104 -99 105 -98 -116 -128 c-63 -71 -208 -232
-322 -358 l-206 -230 0 -150 c0 -83 -3 -269 -7 -413 l-6 -263 1393 0 c1191 0
1396 -2 1409 -14 32 -29 66 -29 99 -1 37 31 41 67 13 105 -23 29 -80 33 -109
7 -17 -16 -112 -17 -1371 -17 l-1352 0 2 328 c1 180 4 344 8 364 5 29 66 102
331 398 179 199 327 366 329 371 1 6 -41 52 -95 103 l-98 94 24 30 c116 144
178 211 200 217 67 17 91 85 45 130 -33 34 -70 32 -106 -5z m76 -40 c0 -20 -6
-26 -28 -28 -18 -2 -29 2 -33 12 -11 28 4 48 33 44 22 -2 28 -8 28 -28z"/>
<path d="M4681 4824 c-28 -35 -26 -69 4 -99 48 -49 125 -16 125 54 0 47 -24
71 -73 71 -27 0 -41 -7 -56 -26z"/>
<path d="M5368 4820 c-24 -25 -29 -37 -25 -59 5 -25 -1 -35 -46 -77 -29 -26
-77 -70 -107 -98 -30 -28 -107 -98 -170 -156 -63 -58 -142 -130 -175 -161 -33
-31 -82 -75 -108 -99 l-48 -44 -85 85 -85 84 -32 -35 c-91 -101 -189 -211
-233 -261 -27 -30 -120 -135 -206 -232 l-158 -176 0 -164 c0 -151 -2 -165 -20
-182 -13 -12 -20 -31 -20 -57 0 -32 5 -41 30 -57 38 -23 74 -17 100 17 24 29
26 61 5 88 -11 15 -14 54 -15 176 l0 156 181 204 c100 111 212 237 249 278 37
41 79 89 93 105 l26 30 83 -82 83 -83 150 138 c82 75 244 224 360 331 115 107
224 200 241 207 37 15 50 30 59 66 6 22 1 33 -23 58 -38 38 -66 38 -104 0z
m-1423 -1606 c18 -18 16 -33 -7 -47 -35 -22 -66 21 -36 51 16 16 23 15 43 -4z"/>
<path d="M4305 4788 c-32 -17 -45 -39 -45 -77 0 -28 -12 -49 -61 -109 l-61
-74 81 -75 c45 -41 81 -78 81 -81 0 -4 -14 -22 -30 -41 -66 -75 -373 -415
-507 -563 l-143 -157 0 -315 0 -316 1298 0 c1125 -1 1300 -3 1316 -15 32 -24
81 -19 105 11 28 35 26 65 -4 98 -29 31 -63 33 -98 6 -26 -20 -37 -20 -1209
-21 -651 0 -1216 0 -1255 1 l-73 0 0 263 0 262 256 285 c141 157 299 332 352
389 54 57 98 109 100 115 1 6 -34 42 -78 80 -44 39 -80 74 -80 79 0 21 72 96
107 114 64 31 71 108 13 138 -34 18 -39 18 -65 3z m55 -43 c26 -31 -18 -71
-47 -42 -19 19 -8 57 16 57 10 0 24 -7 31 -15z"/>
<path d="M5506 4669 c-14 -17 -26 -36 -26 -43 0 -12 -61 -70 -325 -311 -200
-183 -347 -318 -418 -385 l-48 -45 -80 85 -80 85 -82 -85 c-240 -250 -308
-323 -321 -343 -10 -16 -14 -69 -15 -197 -1 -145 -4 -177 -18 -192 -23 -26
-19 -79 8 -100 75 -62 169 40 104 112 -12 13 -15 49 -15 181 l1 164 169 175
169 175 77 -78 c42 -43 81 -76 85 -75 6 3 484 437 747 681 68 62 90 77 116 77
61 0 100 54 75 103 -30 56 -84 63 -123 16z m-1332 -1455 c22 -21 3 -56 -27
-52 -25 3 -34 32 -17 53 16 19 25 19 44 -1z"/>
<path d="M5882 4493 c-7 -3 -19 -18 -27 -34 -42 -80 57 -148 122 -83 58 58
-15 149 -95 117z"/>
<path d="M1094 4350 c-28 -11 -54 -48 -54 -76 0 -12 9 -33 20 -47 19 -24 20
-40 20 -361 l0 -336 593 0 c505 -1 595 -3 611 -15 38 -29 89 -17 111 26 21 39
19 56 -10 84 -30 31 -73 32 -108 5 -24 -19 -40 -20 -571 -20 l-546 0 0 304 c0
258 2 305 15 316 8 7 15 27 15 45 0 56 -49 94 -96 75z m1266 -759 c7 -15 6
-23 -6 -35 -18 -18 -17 -18 -38 -10 -16 6 -22 45 -9 57 13 14 43 7 53 -12z"/>
<path d="M5942 4217 c-45 -47 -11 -127 53 -127 35 0 75 37 75 69 0 71 -82 107
-128 58z"/>
<path d="M1243 3809 c-27 -10 -53 -47 -53 -77 0 -30 43 -72 73 -72 39 0 77 36
77 74 0 58 -46 94 -97 75z"/>
<path d="M1422 3797 c-67 -72 34 -172 103 -102 30 30 32 64 4 99 -27 34 -77
36 -107 3z"/>
<path d="M1615 3795 c-14 -13 -25 -36 -25 -50 0 -35 42 -75 78 -75 65 0 97 89
46 129 -35 28 -69 26 -99 -4z"/>
<path d="M681 3674 c-29 -37 -26 -70 9 -106 l30 -30 0 -199 0 -199 1058 0
1058 0 26 -30 c35 -40 87 -42 117 -4 27 34 27 64 -1 99 -15 20 -18 30 -10 33
7 2 19 17 27 33 29 55 -7 109 -71 109 -17 0 -37 -7 -44 -15 -11 -13 -133 -15
-986 -15 l-974 0 0 96 c0 88 2 99 25 126 32 37 32 68 0 98 -32 30 -78 30 -108
2 l-23 -22 -24 25 c-32 35 -81 34 -109 -1z m74 -39 c0 -25 -4 -30 -25 -30 -16
0 -26 6 -28 18 -6 30 6 49 30 45 18 -2 23 -9 23 -33z m160 -15 c0 -20 -6 -26
-28 -28 -18 -2 -29 2 -33 12 -11 28 4 48 33 44 22 -2 28 -8 28 -28z m-89 -37
c10 -13 13 -59 14 -165 l0 -148 1006 0 c977 0 1007 -1 1030 -19 19 -15 21 -21
12 -27 -20 -13 -2088 -12 -2089 1 -5 42 -6 308 -2 338 5 42 10 45 29 20z"/>
<path d="M6556 3649 c-32 -25 -35 -75 -6 -112 20 -25 20 -38 18 -589 l-3 -563
-1710 0 -1710 0 -3 436 c-2 425 -2 436 18 454 28 25 26 70 -5 100 -30 30 -64
32 -99 4 -30 -24 -35 -71 -11 -106 13 -19 15 -89 15 -492 l0 -471 1795 0 1795
0 0 614 c0 533 2 615 15 626 23 19 18 68 -10 95 -30 30 -64 32 -99 4z m-3435
-305 c9 -11 10 -20 2 -32 -13 -22 -43 -22 -56 -1 -24 38 25 68 54 33z"/>
<path d="M6265 3640 c-12 -4 -27 -15 -34 -24 -12 -14 -97 -16 -905 -16 l-891
0 -41 22 c-37 19 -45 20 -72 9 -38 -16 -60 -68 -42 -101 26 -49 80 -60 121
-23 14 12 150 14 920 14 845 0 906 -2 937 -18 30 -16 35 -16 60 -3 60 34 62
104 3 135 -17 8 -31 15 -33 14 -2 0 -12 -4 -23 -9z m53 -69 c6 -37 -26 -52
-52 -25 -12 12 -13 20 -5 35 15 28 53 21 57 -10z"/>
<path d="M6249 3355 c-15 -8 -29 -21 -32 -29 -5 -13 -118 -15 -908 -15 -876 0
-903 1 -927 20 -14 10 -36 19 -49 19 -33 0 -73 -42 -73 -78 0 -60 85 -96 125
-52 17 19 35 19 923 19 760 -1 911 -3 934 -15 40 -21 66 -17 93 12 33 36 31
69 -4 105 -33 33 -44 34 -82 14z m62 -41 c9 -11 10 -20 2 -32 -23 -37 -70 -20
-59 22 7 30 36 35 57 10z"/>
<path d="M1438 3020 c-156 -27 -270 -211 -255 -410 13 -167 109 -304 237 -340
19 -5 104 -10 188 -10 l152 0 0 95 0 95 -145 0 c-100 0 -156 4 -178 14 -76 31
-123 142 -98 234 13 50 50 105 81 122 26 14 188 16 201 3 6 -6 9 -26 7 -44
l-3 -34 -107 -3 -108 -3 0 -94 0 -95 115 0 c130 0 153 7 203 64 38 44 52 91
52 181 -1 102 -38 178 -105 212 -34 18 -166 25 -237 13z"/>
<path d="M752 2928 l3 -93 50 -2 c28 0 58 -1 68 -2 16 -1 17 -22 17 -286 l0
-286 73 3 72 3 3 283 2 282 53 1 c28 1 58 1 65 0 9 -1 12 23 12 94 l0 95 -210
0 -211 0 3 -92z"/>
<path d="M2015 2996 c-208 -97 -259 -451 -91 -643 61 -70 109 -87 264 -91
l132 -4 0 96 0 96 -105 0 c-119 0 -157 11 -197 58 -68 81 -48 252 35 302 27
17 51 20 150 20 l117 0 0 95 0 95 -127 0 c-113 0 -134 -3 -178 -24z"/>
<path d="M2380 2640 l0 -380 75 0 74 0 3 143 3 142 115 0 115 0 3 -142 3 -143
74 0 75 0 0 380 0 380 -75 0 -74 0 -3 -137 -3 -138 -117 -3 -118 -3 0 141 0
140 -75 0 -75 0 0 -380z"/>
<path d="M3455 2685 c-70 -69 23 -165 105 -108 23 16 114 17 1328 18 941 0
1306 -3 1310 -11 10 -16 47 -34 72 -34 28 0 70 43 70 73 0 13 -9 36 -21 51
-24 30 -73 35 -105 11 -16 -12 -193 -14 -1330 -15 -1298 0 -1311 0 -1329 20
-25 28 -70 26 -100 -5z m69 -28 c26 -19 13 -57 -19 -57 -28 0 -43 34 -25 55
15 18 21 19 44 2z"/>
<path d="M4670 2080 c-80 -22 -147 -89 -181 -179 -19 -52 -21 -77 -21 -319 0
-145 1 -265 3 -267 5 -4 55 -7 107 -6 l42 1 0 250 c0 204 3 256 15 280 39 75
134 65 165 -16 6 -14 10 -135 10 -269 l0 -243 59 -4 c100 -5 91 -29 92 245 1
133 4 252 7 264 26 85 127 100 167 23 12 -24 15 -76 15 -280 l0 -250 23 -1
c44 -2 118 1 125 5 4 2 7 120 6 263 0 317 -7 347 -94 434 -46 47 -65 58 -108
68 -28 6 -57 9 -64 7 -7 -3 -25 -7 -40 -10 -14 -3 -47 -21 -71 -40 -45 -35
-45 -35 -64 -14 -40 44 -137 74 -193 58z"/>
<path d="M6283 2075 c-89 -20 -160 -90 -205 -204 -21 -52 -23 -75 -26 -308
l-4 -253 51 -1 c28 -1 58 -1 66 -1 8 0 20 0 25 1 6 1 10 81 10 217 0 241 6
278 56 330 57 61 149 41 190 -43 16 -33 20 -70 24 -273 l5 -234 23 1 c12 0 45
1 73 2 l51 1 -4 253 c-3 235 -5 256 -27 310 -61 154 -179 231 -308 202z"/>
<path d="M2754 2056 c-185 -86 -265 -377 -160 -584 84 -165 236 -229 378 -159
138 68 221 265 190 450 -41 238 -232 375 -408 293z m177 -189 c19 -12 45 -43
59 -67 21 -37 25 -58 25 -121 0 -67 -4 -82 -30 -124 -60 -96 -154 -110 -227
-34 -42 44 -58 90 -58 169 0 68 25 125 74 168 46 40 105 44 157 9z"/>
<path d="M1948 2062 l-28 -3 0 -375 0 -374 73 -1 c220 -3 361 2 386 15 95 50
138 171 106 300 -14 55 -15 72 -4 103 7 21 13 67 13 103 1 84 -37 169 -93 206
-36 23 -44 24 -232 27 -107 1 -206 1 -221 -1z m380 -196 c7 -4 12 -23 12 -41
0 -40 -8 -43 -110 -47 l-65 -3 0 -90 0 -90 80 -3 c90 -3 108 -15 96 -60 l-7
-27 -132 -3 -132 -3 0 184 c0 101 2 186 5 189 8 8 240 3 253 -6z"/>
<path d="M3229 2059 c-6 -3 -9 -46 -7 -95 l3 -89 152 0 c83 0 154 -3 157 -6 4
-3 -49 -66 -116 -138 -170 -183 -191 -212 -196 -275 -3 -42 1 -57 20 -86 40
-59 58 -63 287 -62 113 0 213 1 221 1 12 1 15 18 14 94 l0 92 -158 3 c-87 1
-156 7 -154 11 2 5 66 78 143 161 163 176 179 203 172 274 -4 41 -10 55 -41
83 -30 27 -44 33 -83 34 -311 3 -406 3 -414 -2z"/>
<path d="M4039 2056 c-99 -35 -180 -136 -208 -256 -15 -66 -13 -188 4 -245 32
-105 107 -196 190 -231 32 -13 178 -19 338 -15 l38 1 -3 93 -3 92 -167 5
c-160 5 -167 6 -194 30 -88 82 -84 254 9 321 37 27 47 29 127 29 93 0 100 -4
100 -54 0 -39 -18 -46 -127 -46 l-104 0 3 -92 3 -93 122 0 c119 0 122 1 165
30 96 68 119 255 45 366 -38 57 -95 79 -207 79 -52 -1 -111 -7 -131 -14z"/>
<path d="M5426 2062 c-14 -3 -16 -16 -14 -95 l3 -92 122 -1 c81 0 126 -4 136
-13 18 -14 38 -67 30 -75 -4 -3 -51 -6 -105 -6 -111 0 -138 -9 -185 -64 -64
-72 -77 -202 -31 -296 48 -97 107 -119 291 -112 l78 4 -3 91 -3 92 -115 5
-115 5 0 40 0 40 124 0 125 0 38 -134 c20 -74 39 -135 40 -136 9 -7 149 -12
153 -6 2 5 -20 98 -51 207 -30 109 -65 237 -78 284 -37 135 -83 207 -156 245
-25 13 -238 26 -284 17z"/>
</g>
</svg>
